<svg xmlns="http://www.w3.org/2000/svg" xmlns:xlink="http://www.w3.org/1999/xlink" version="1.1" width="256" height="256" viewBox="0 0 256 256" xml:space="preserve">

<defs>
</defs>
<g style="stroke: none; stroke-width: 0; stroke-dasharray: none; stroke-linecap: butt; stroke-linejoin: miter; stroke-miterlimit: 10; fill: none; fill-rule: nonzero; opacity: 1;" transform="translate(1.4065934065934016 1.4065934065934016) scale(2.81 2.81)" >
	<rect x="2.13" y="25.75" rx="0" ry="0" width="82.5" height="38.5" style="stroke: none; stroke-width: 1; stroke-dasharray: none; stroke-linecap: butt; stroke-linejoin: miter; stroke-miterlimit: 10; fill: rgb(89,153,68); fill-rule: nonzero; opacity: 1;" transform=" matrix(0.7025 -0.7116 0.7116 0.7025 -19.1194 44.2588) "/>
	<path d="M 86.563 29.66 L 28.6 88.374 c -0.273 0.276 -0.718 0.279 -0.994 0.006 L 0.209 61.335 c -0.276 -0.273 -0.279 -0.718 -0.006 -0.994 L 58.166 1.626 c 0.273 -0.276 0.718 -0.279 0.994 -0.006 l 27.396 27.046 C 86.833 28.938 86.835 29.384 86.563 29.66 z M 28.093 86.885 l 56.975 -57.713 L 58.673 3.115 L 1.697 60.828 L 28.093 86.885 z" style="stroke: none; stroke-width: 1; stroke-dasharray: none; stroke-linecap: butt; stroke-linejoin: miter; stroke-miterlimit: 10; fill: rgb(0,0,0); fill-rule: nonzero; opacity: 1;" transform=" matrix(1 0 0 1 0 0) " stroke-linecap="round" />
	<circle cx="43.379999999999995" cy="45" r="13.68" style="stroke: none; stroke-width: 1; stroke-dasharray: none; stroke-linecap: butt; stroke-linejoin: miter; stroke-miterlimit: 10; fill: rgb(118,204,91); fill-rule: nonzero; opacity: 1;" transform="  matrix(1 0 0 1 0 0) "/>
	<circle cx="28.351999999999997" cy="60.222" r="2.292" style="stroke: none; stroke-width: 1; stroke-dasharray: none; stroke-linecap: butt; stroke-linejoin: miter; stroke-miterlimit: 10; fill: rgb(118,204,91); fill-rule: nonzero; opacity: 1;" transform="  matrix(1 0 0 1 0 0) "/>
	<circle cx="57.872" cy="30.322000000000003" r="2.292" style="stroke: none; stroke-width: 1; stroke-dasharray: none; stroke-linecap: butt; stroke-linejoin: miter; stroke-miterlimit: 10; fill: rgb(118,204,91); fill-rule: nonzero; opacity: 1;" transform="  matrix(1 0 0 1 0 0) "/>
	<path d="M 53.619 55.105 c -5.572 5.644 -14.696 5.703 -20.341 0.131 c -5.644 -5.572 -5.703 -14.696 -0.131 -20.341 c 5.572 -5.645 14.697 -5.703 20.341 -0.131 C 59.133 40.336 59.191 49.461 53.619 55.105 z M 34.148 35.883 c -5.027 5.092 -4.974 13.325 0.118 18.352 c 5.093 5.028 13.325 4.975 18.352 -0.118 c 5.028 -5.093 4.975 -13.325 -0.118 -18.353 C 47.408 30.738 39.175 30.791 34.148 35.883 z" style="stroke: none; stroke-width: 1; stroke-dasharray: none; stroke-linecap: butt; stroke-linejoin: miter; stroke-miterlimit: 10; fill: rgb(0,0,0); fill-rule: nonzero; opacity: 1;" transform=" matrix(1 0 0 1 0 0) " stroke-linecap="round" />
	<path d="M 48.666 50.399 c -1.458 1.476 -3.502 2.019 -5.207 1.381 c -0.364 -0.136 -0.548 -0.541 -0.412 -0.905 c 0.134 -0.364 0.541 -0.548 0.905 -0.412 c 1.169 0.437 2.662 0.015 3.714 -1.051 c 1.053 -1.066 1.456 -2.564 1.004 -3.728 c -0.253 -0.592 -0.601 -0.967 -1.056 -1.124 c -0.812 -0.281 -2.085 0.065 -3.892 1.057 c -1.504 0.826 -3.436 1.703 -5.028 1.153 c -0.84 -0.29 -1.478 -0.937 -1.898 -1.922 c -0.669 -1.719 -0.153 -3.77 1.305 -5.246 s 3.502 -2.018 5.207 -1.38 c 0.364 0.137 0.548 0.541 0.412 0.905 c -0.136 0.363 -0.541 0.548 -0.905 0.412 c -1.169 -0.438 -2.661 -0.016 -3.714 1.051 c -1.053 1.066 -1.456 2.564 -1.003 3.728 c 0.253 0.592 0.601 0.966 1.056 1.124 c 0.811 0.281 2.084 -0.065 3.891 -1.057 c 1.504 -0.826 3.436 -1.703 5.027 -1.153 c 0.84 0.29 1.479 0.936 1.9 1.922 C 50.64 46.871 50.124 48.922 48.666 50.399 z" style="stroke: none; stroke-width: 1; stroke-dasharray: none; stroke-linecap: butt; stroke-linejoin: miter; stroke-miterlimit: 10; fill: rgb(0,0,0); fill-rule: nonzero; opacity: 1;" transform=" matrix(1 0 0 1 0 0) " stroke-linecap="round" />
	<path d="M 50.054 51.769 c -0.273 0.276 -0.718 0.279 -0.994 0.006 l -1.388 -1.37 c -0.276 -0.273 -0.279 -0.718 -0.006 -0.994 s 0.718 -0.279 0.994 -0.006 l 1.388 1.37 C 50.324 51.047 50.327 51.493 50.054 51.769 z" style="stroke: none; stroke-width: 1; stroke-dasharray: none; stroke-linecap: butt; stroke-linejoin: miter; stroke-miterlimit: 10; fill: rgb(0,0,0); fill-rule: nonzero; opacity: 1;" transform=" matrix(1 0 0 1 0 0) " stroke-linecap="round" />
	<path d="M 38.917 40.775 c -0.273 0.276 -0.718 0.279 -0.994 0.006 l -1.388 -1.37 c -0.276 -0.273 -0.279 -0.718 -0.006 -0.994 s 0.718 -0.279 0.994 -0.006 l 1.388 1.37 C 39.187 40.053 39.19 40.499 38.917 40.775 z" style="stroke: none; stroke-width: 1; stroke-dasharray: none; stroke-linecap: butt; stroke-linejoin: miter; stroke-miterlimit: 10; fill: rgb(0,0,0); fill-rule: nonzero; opacity: 1;" transform=" matrix(1 0 0 1 0 0) " stroke-linecap="round" />
	<path d="M 45.084 63.751 L 28.549 80.5 c -0.273 0.276 -0.718 0.279 -0.994 0.006 L 8.084 61.284 c -0.276 -0.273 -0.279 -0.718 -0.006 -0.994 l 12.149 -12.307 c 0.273 -0.276 0.718 -0.279 0.994 -0.006 s 0.279 0.718 0.006 0.994 L 9.572 60.777 l 18.47 18.234 l 16.041 -16.248 c 0.273 -0.276 0.718 -0.279 0.994 -0.006 C 45.354 63.029 45.357 63.475 45.084 63.751 z" style="stroke: none; stroke-width: 1; stroke-dasharray: none; stroke-linecap: butt; stroke-linejoin: miter; stroke-miterlimit: 10; fill: rgb(0,0,0); fill-rule: nonzero; opacity: 1;" transform=" matrix(1 0 0 1 0 0) " stroke-linecap="round" />
	<path d="M 25.613 44.529 l -1.596 1.616 c -0.273 0.276 -0.718 0.279 -0.994 0.006 s -0.279 -0.718 -0.006 -0.994 l 1.596 -1.616 c 0.273 -0.276 0.718 -0.279 0.994 -0.006 C 25.883 43.807 25.886 44.253 25.613 44.529 z" style="stroke: none; stroke-width: 1; stroke-dasharray: none; stroke-linecap: butt; stroke-linejoin: miter; stroke-miterlimit: 10; fill: rgb(0,0,0); fill-rule: nonzero; opacity: 1;" transform=" matrix(1 0 0 1 0 0) " stroke-linecap="round" />
	<path d="M 78.688 29.711 L 66.54 42.017 c -0.273 0.276 -0.718 0.279 -0.994 0.006 c -0.276 -0.273 -0.279 -0.718 -0.006 -0.994 l 11.655 -11.806 L 58.723 10.99 l -16.04 16.248 c -0.273 0.276 -0.718 0.279 -0.994 0.006 s -0.279 -0.718 -0.006 -0.994 L 58.216 9.501 c 0.273 -0.276 0.718 -0.279 0.994 -0.006 l 19.471 19.222 C 78.958 28.99 78.961 29.435 78.688 29.711 z" style="stroke: none; stroke-width: 1; stroke-dasharray: none; stroke-linecap: butt; stroke-linejoin: miter; stroke-miterlimit: 10; fill: rgb(0,0,0); fill-rule: nonzero; opacity: 1;" transform=" matrix(1 0 0 1 0 0) " stroke-linecap="round" />
	<path d="M 63.75 44.843 l -1.596 1.617 c -0.273 0.276 -0.718 0.279 -0.994 0.006 s -0.279 -0.718 -0.006 -0.994 l 1.596 -1.617 c 0.273 -0.276 0.718 -0.279 0.994 -0.006 S 64.023 44.567 63.75 44.843 z" style="stroke: none; stroke-width: 1; stroke-dasharray: none; stroke-linecap: butt; stroke-linejoin: miter; stroke-miterlimit: 10; fill: rgb(0,0,0); fill-rule: nonzero; opacity: 1;" transform=" matrix(1 0 0 1 0 0) " stroke-linecap="round" />
	<path d="M 65.733 23.362 l -2.578 2.611 c -0.273 0.276 -0.718 0.279 -0.994 0.006 c -0.276 -0.273 -0.279 -0.718 -0.006 -0.994 l 2.578 -2.611 c 0.273 -0.276 0.718 -0.279 0.994 -0.006 C 66.002 22.64 66.005 23.085 65.733 23.362 z" style="stroke: none; stroke-width: 1; stroke-dasharray: none; stroke-linecap: butt; stroke-linejoin: miter; stroke-miterlimit: 10; fill: rgb(0,0,0); fill-rule: nonzero; opacity: 1;" transform=" matrix(1 0 0 1 0 0) " stroke-linecap="round" />
	<path d="M 24.612 65.015 l -2.578 2.611 c -0.273 0.276 -0.718 0.279 -0.994 0.006 c -0.276 -0.273 -0.279 -0.718 -0.006 -0.994 l 2.578 -2.611 c 0.273 -0.276 0.718 -0.279 0.994 -0.006 C 24.882 64.294 24.884 64.739 24.612 65.015 z" style="stroke: none; stroke-width: 1; stroke-dasharray: none; stroke-linecap: butt; stroke-linejoin: miter; stroke-miterlimit: 10; fill: rgb(0,0,0); fill-rule: nonzero; opacity: 1;" transform=" matrix(1 0 0 1 0 0) " stroke-linecap="round" />
	<path d="M 30.487 62.326 c -1.16 1.175 -3.06 1.188 -4.235 0.027 c -1.175 -1.16 -1.187 -3.06 -0.027 -4.235 c 1.16 -1.175 3.06 -1.187 4.235 -0.027 C 31.635 59.252 31.647 61.151 30.487 62.326 z M 27.225 59.106 c -0.615 0.623 -0.609 1.631 0.014 2.246 c 0.623 0.615 1.631 0.609 2.246 -0.014 c 0.615 -0.623 0.609 -1.631 -0.014 -2.246 C 28.848 58.477 27.84 58.483 27.225 59.106 z" style="stroke: none; stroke-width: 1; stroke-dasharray: none; stroke-linecap: butt; stroke-linejoin: miter; stroke-miterlimit: 10; fill: rgb(0,0,0); fill-rule: nonzero; opacity: 1;" transform=" matrix(1 0 0 1 0 0) " stroke-linecap="round" />
	<path d="M 60.005 32.426 c -1.16 1.175 -3.06 1.188 -4.235 0.027 c -1.175 -1.16 -1.188 -3.06 -0.027 -4.235 c 1.16 -1.175 3.06 -1.187 4.235 -0.027 C 61.153 29.351 61.165 31.25 60.005 32.426 z M 56.743 29.206 c -0.616 0.624 -0.609 1.631 0.014 2.246 s 1.631 0.609 2.246 -0.014 s 0.609 -1.631 -0.014 -2.246 S 57.359 28.582 56.743 29.206 z" style="stroke: none; stroke-width: 1; stroke-dasharray: none; stroke-linecap: butt; stroke-linejoin: miter; stroke-miterlimit: 10; fill: rgb(0,0,0); fill-rule: nonzero; opacity: 1;" transform=" matrix(1 0 0 1 0 0) " stroke-linecap="round" />
	<rect x="6.79" y="43.47" rx="0" ry="0" width="82.5" height="38.5" style="stroke: none; stroke-width: 1; stroke-dasharray: none; stroke-linecap: butt; stroke-linejoin: miter; stroke-miterlimit: 10; fill: rgb(89,153,68); fill-rule: nonzero; opacity: 1;" transform=" matrix(1 0 0 1 0 0) "/>
	<path d="M 89.297 82.666 H 6.792 c -0.388 0 -0.703 -0.315 -0.703 -0.703 V 43.466 c 0 -0.388 0.315 -0.703 0.703 -0.703 h 82.505 c 0.388 0 0.703 0.315 0.703 0.703 v 38.497 C 90 82.351 89.685 82.666 89.297 82.666 z M 7.495 81.26 h 81.099 V 44.169 H 7.495 V 81.26 z" style="stroke: none; stroke-width: 1; stroke-dasharray: none; stroke-linecap: butt; stroke-linejoin: miter; stroke-miterlimit: 10; fill: rgb(0,0,0); fill-rule: nonzero; opacity: 1;" transform=" matrix(1 0 0 1 0 0) " stroke-linecap="round" />
	<circle cx="48.04" cy="62.72" r="13.68" style="stroke: none; stroke-width: 1; stroke-dasharray: none; stroke-linecap: butt; stroke-linejoin: miter; stroke-miterlimit: 10; fill: rgb(118,204,91); fill-rule: nonzero; opacity: 1;" transform="  matrix(1 0 0 1 0 0) "/>
	<circle cx="26.652" cy="62.712" r="2.292" style="stroke: none; stroke-width: 1; stroke-dasharray: none; stroke-linecap: butt; stroke-linejoin: miter; stroke-miterlimit: 10; fill: rgb(118,204,91); fill-rule: nonzero; opacity: 1;" transform="  matrix(1 0 0 1 0 0) "/>
	<circle cx="68.672" cy="62.712" r="2.292" style="stroke: none; stroke-width: 1; stroke-dasharray: none; stroke-linecap: butt; stroke-linejoin: miter; stroke-miterlimit: 10; fill: rgb(118,204,91); fill-rule: nonzero; opacity: 1;" transform="  matrix(1 0 0 1 0 0) "/>
	<path d="M 48.044 77.099 c -7.931 0 -14.383 -6.452 -14.383 -14.384 c 0 -7.931 6.452 -14.383 14.383 -14.383 c 7.932 0 14.384 6.452 14.384 14.383 C 62.428 70.646 55.976 77.099 48.044 77.099 z M 48.044 49.738 c -7.156 0 -12.977 5.821 -12.977 12.977 c 0 7.156 5.821 12.977 12.977 12.977 c 7.156 0 12.977 -5.821 12.977 -12.977 C 61.022 55.559 55.201 49.738 48.044 49.738 z" style="stroke: none; stroke-width: 1; stroke-dasharray: none; stroke-linecap: butt; stroke-linejoin: miter; stroke-miterlimit: 10; fill: rgb(0,0,0); fill-rule: nonzero; opacity: 1;" transform=" matrix(1 0 0 1 0 0) " stroke-linecap="round" />
	<path d="M 47.914 70.267 c -2.075 0 -3.897 -1.074 -4.641 -2.736 c -0.159 -0.354 0 -0.77 0.354 -0.929 c 0.353 -0.16 0.77 0 0.929 0.354 c 0.51 1.139 1.86 1.904 3.357 1.904 c 1.498 0 2.848 -0.765 3.358 -1.904 c 0.244 -0.596 0.266 -1.107 0.058 -1.541 c -0.371 -0.775 -1.511 -1.438 -3.486 -2.027 c -1.645 -0.49 -3.626 -1.248 -4.353 -2.768 c -0.383 -0.802 -0.372 -1.71 0.034 -2.701 c 0.754 -1.683 2.575 -2.757 4.65 -2.757 s 3.896 1.074 4.641 2.736 c 0.158 0.355 0 0.77 -0.354 0.929 c -0.354 0.158 -0.77 0 -0.929 -0.354 c -0.51 -1.139 -1.859 -1.905 -3.357 -1.905 s -2.847 0.765 -3.358 1.905 c -0.244 0.596 -0.266 1.106 -0.058 1.541 c 0.37 0.775 1.511 1.437 3.486 2.027 c 1.645 0.49 3.626 1.248 4.352 2.768 c 0.384 0.802 0.373 1.71 -0.033 2.702 C 51.811 69.193 49.99 70.267 47.914 70.267 z" style="stroke: none; stroke-width: 1; stroke-dasharray: none; stroke-linecap: butt; stroke-linejoin: miter; stroke-miterlimit: 10; fill: rgb(0,0,0); fill-rule: nonzero; opacity: 1;" transform=" matrix(1 0 0 1 0 0) " stroke-linecap="round" />
	<path d="M 47.914 72.218 c -0.388 0 -0.703 -0.315 -0.703 -0.703 v -1.95 c 0 -0.388 0.315 -0.703 0.703 -0.703 s 0.703 0.315 0.703 0.703 v 1.95 C 48.617 71.903 48.302 72.218 47.914 72.218 z" style="stroke: none; stroke-width: 1; stroke-dasharray: none; stroke-linecap: butt; stroke-linejoin: miter; stroke-miterlimit: 10; fill: rgb(0,0,0); fill-rule: nonzero; opacity: 1;" transform=" matrix(1 0 0 1 0 0) " stroke-linecap="round" />
	<path d="M 47.914 56.569 c -0.388 0 -0.703 -0.315 -0.703 -0.703 v -1.95 c 0 -0.388 0.315 -0.703 0.703 -0.703 s 0.703 0.315 0.703 0.703 v 1.95 C 48.617 56.254 48.302 56.569 47.914 56.569 z" style="stroke: none; stroke-width: 1; stroke-dasharray: none; stroke-linecap: butt; stroke-linejoin: miter; stroke-miterlimit: 10; fill: rgb(0,0,0); fill-rule: nonzero; opacity: 1;" transform=" matrix(1 0 0 1 0 0) " stroke-linecap="round" />
	<path d="M 35.896 77.099 H 12.36 c -0.388 0 -0.703 -0.315 -0.703 -0.703 V 49.035 c 0 -0.388 0.315 -0.703 0.703 -0.703 h 17.293 c 0.388 0 0.703 0.315 0.703 0.703 s -0.315 0.703 -0.703 0.703 h -16.59 v 25.954 h 22.832 c 0.388 0 0.703 0.315 0.703 0.703 S 36.284 77.099 35.896 77.099 z" style="stroke: none; stroke-width: 1; stroke-dasharray: none; stroke-linecap: butt; stroke-linejoin: miter; stroke-miterlimit: 10; fill: rgb(0,0,0); fill-rule: nonzero; opacity: 1;" transform=" matrix(1 0 0 1 0 0) " stroke-linecap="round" />
	<path d="M 35.896 49.738 h -2.271 c -0.388 0 -0.703 -0.315 -0.703 -0.703 s 0.315 -0.703 0.703 -0.703 h 2.271 c 0.388 0 0.703 0.315 0.703 0.703 S 36.284 49.738 35.896 49.738 z" style="stroke: none; stroke-width: 1; stroke-dasharray: none; stroke-linecap: butt; stroke-linejoin: miter; stroke-miterlimit: 10; fill: rgb(0,0,0); fill-rule: nonzero; opacity: 1;" transform=" matrix(1 0 0 1 0 0) " stroke-linecap="round" />
	<path d="M 83.728 77.099 H 66.436 c -0.388 0 -0.703 -0.315 -0.703 -0.703 s 0.315 -0.703 0.703 -0.703 h 16.589 V 49.738 H 60.193 c -0.388 0 -0.703 -0.315 -0.703 -0.703 s 0.315 -0.703 0.703 -0.703 h 23.535 c 0.388 0 0.703 0.315 0.703 0.703 v 27.361 C 84.431 76.784 84.116 77.099 83.728 77.099 z" style="stroke: none; stroke-width: 1; stroke-dasharray: none; stroke-linecap: butt; stroke-linejoin: miter; stroke-miterlimit: 10; fill: rgb(0,0,0); fill-rule: nonzero; opacity: 1;" transform=" matrix(1 0 0 1 0 0) " stroke-linecap="round" />
	<path d="M 62.465 77.099 h -2.272 c -0.388 0 -0.703 -0.315 -0.703 -0.703 s 0.315 -0.703 0.703 -0.703 h 2.272 c 0.388 0 0.703 0.315 0.703 0.703 S 62.853 77.099 62.465 77.099 z" style="stroke: none; stroke-width: 1; stroke-dasharray: none; stroke-linecap: butt; stroke-linejoin: miter; stroke-miterlimit: 10; fill: rgb(0,0,0); fill-rule: nonzero; opacity: 1;" transform=" matrix(1 0 0 1 0 0) " stroke-linecap="round" />
	<path d="M 79.145 63.418 h -3.67 c -0.388 0 -0.703 -0.315 -0.703 -0.703 s 0.315 -0.703 0.703 -0.703 h 3.67 c 0.388 0 0.703 0.315 0.703 0.703 S 79.533 63.418 79.145 63.418 z" style="stroke: none; stroke-width: 1; stroke-dasharray: none; stroke-linecap: butt; stroke-linejoin: miter; stroke-miterlimit: 10; fill: rgb(0,0,0); fill-rule: nonzero; opacity: 1;" transform=" matrix(1 0 0 1 0 0) " stroke-linecap="round" />
	<path d="M 20.613 63.418 h -3.669 c -0.388 0 -0.703 -0.315 -0.703 -0.703 s 0.315 -0.703 0.703 -0.703 h 3.669 c 0.388 0 0.703 0.315 0.703 0.703 S 21.001 63.418 20.613 63.418 z" style="stroke: none; stroke-width: 1; stroke-dasharray: none; stroke-linecap: butt; stroke-linejoin: miter; stroke-miterlimit: 10; fill: rgb(0,0,0); fill-rule: nonzero; opacity: 1;" transform=" matrix(1 0 0 1 0 0) " stroke-linecap="round" />
	<path d="M 26.654 65.71 c -1.651 0 -2.995 -1.343 -2.995 -2.995 c 0 -1.651 1.344 -2.995 2.995 -2.995 s 2.995 1.344 2.995 2.995 C 29.649 64.367 28.305 65.71 26.654 65.71 z M 26.654 61.126 c -0.876 0 -1.589 0.713 -1.589 1.589 c 0 0.876 0.713 1.589 1.589 1.589 s 1.589 -0.713 1.589 -1.589 C 28.243 61.839 27.53 61.126 26.654 61.126 z" style="stroke: none; stroke-width: 1; stroke-dasharray: none; stroke-linecap: butt; stroke-linejoin: miter; stroke-miterlimit: 10; fill: rgb(0,0,0); fill-rule: nonzero; opacity: 1;" transform=" matrix(1 0 0 1 0 0) " stroke-linecap="round" />
	<path d="M 68.671 65.71 c -1.652 0 -2.995 -1.343 -2.995 -2.995 c 0 -1.651 1.343 -2.995 2.995 -2.995 s 2.995 1.344 2.995 2.995 C 71.665 64.367 70.322 65.71 68.671 65.71 z M 68.671 61.126 c -0.876 0 -1.589 0.713 -1.589 1.589 c 0 0.876 0.712 1.589 1.589 1.589 s 1.589 -0.713 1.589 -1.589 C 70.259 61.839 69.547 61.126 68.671 61.126 z" style="stroke: none; stroke-width: 1; stroke-dasharray: none; stroke-linecap: butt; stroke-linejoin: miter; stroke-miterlimit: 10; fill: rgb(0,0,0); fill-rule: nonzero; opacity: 1;" transform=" matrix(1 0 0 1 0 0) " stroke-linecap="round" />
</g>
</svg>