<!DOCTYPE svg PUBLIC "-//W3C//DTD SVG 1.1//EN" "http://www.w3.org/Graphics/SVG/1.1/DTD/svg11.dtd">
<!-- Uploaded to: SVG Repo, www.svgrepo.com, Transformed by: SVG Repo Mixer Tools -->
<svg height="800px" width="800px" version="1.1" id="Layer_1" xmlns="http://www.w3.org/2000/svg" xmlns:xlink="http://www.w3.org/1999/xlink" viewBox="0 0 473.654 473.654" xml:space="preserve" fill="#000000" transform="rotate(90)">
<g id="SVGRepo_bgCarrier" stroke-width="0"/>
<g id="SVGRepo_tracerCarrier" stroke-linecap="round" stroke-linejoin="round"/>
<g id="SVGRepo_iconCarrier"> <circle style="fill:#f25050;" cx="236.827" cy="236.827" r="236.827"/> <path style="fill:#FFFFFF;" d="M392.274,207.999c-84.9,0-169.799,0-254.702,0c11.084-11.08,22.164-22.164,33.245-33.245 c25.56-25.564-14.259-65.084-39.886-39.46c-27.011,27.011-54.018,54.022-81.029,81.033c-10.841,10.845-10.546,28.907,0.217,39.669 c27.011,27.007,54.018,54.018,81.029,81.025c25.564,25.56,65.08-14.259,39.456-39.883c-11.013-11.013-22.03-22.026-33.039-33.039 c84.769,0,169.541,0,254.313,0C428.091,264.104,428.413,207.999,392.274,207.999z"/> </g>
</svg>